<!-- Phoenix AI Logo - Professional Design -->
<svg width="200" height="200" viewBox="0 0 200 200" fill="none" xmlns="http://www.w3.org/2000/svg">
  <!-- Phoenix Body - Orange to Yellow Gradient -->
  <defs>
    <linearGradient id="bodyGradient" x1="100" y1="20" x2="100" y2="180">
      <stop offset="0%" stop-color="#FF6B35"/>
      <stop offset="50%" stop-color="#FF8D1A"/>
      <stop offset="100%" stop-color="#FFC837"/>
    </linearGradient>
    <linearGradient id="wingsGradient" x1="50" y1="80" x2="150" y2="80">
      <stop offset="0%" stop-color="#FFD93D"/>
      <stop offset="50%" stop-color="#FFA500"/>
      <stop offset="100%" stop-color="#FF6B35"/>
    </linearGradient>
    <linearGradient id="chartGradient" x1="100" y1="80" x2="100" y2="120">
      <stop offset="0%" stop-color="#00A8E8"/>
      <stop offset="100%" stop-color="#0077B6"/>
    </linearGradient>
  </defs>
  
  <!-- Phoenix Body -->
  <path d="M100 30 C90 30, 80 40, 75 60 C70 80, 70 100, 75 120 C80 140, 90 150, 100 150 C110 150, 120 140, 125 120 C130 100, 130 80, 125 60 C120 40, 110 30, 100 30 Z" fill="url(#bodyGradient)"/>
  
  <!-- Phoenix Head -->
  <circle cx="100" cy="45" r="12" fill="#FF4E00"/>
  <circle cx="105" cy="43" r="3" fill="#2c3e50"/>
  <path d="M110 45 L115 43 L118 45" stroke="#FF4E00" stroke-width="2" fill="none"/>
  
  <!-- Left Wing -->
  <path d="M75 80 C60 70, 40 75, 30 90 C25 100, 30 110, 40 115 C50 120, 65 115, 75 105 Z" fill="url(#wingsGradient)" opacity="0.9"/>
  
  <!-- Right Wing -->
  <path d="M125 80 C140 70, 160 75, 170 90 C175 100, 170 110, 160 115 C150 120, 135 115, 125 105 Z" fill="url(#wingsGradient)" opacity="0.9"/>
  
  <!-- Tail Feathers -->
  <path d="M90 150 C85 160, 80 175, 75 190" stroke="#FFD93D" stroke-width="6" stroke-linecap="round"/>
  <path d="M100 150 C100 165, 100 180, 100 195" stroke="#FFA500" stroke-width="6" stroke-linecap="round"/>
  <path d="M110 150 C115 160, 120 175, 125 190" stroke="#FF6B35" stroke-width="6" stroke-linecap="round"/>
  
  <!-- Analytics Chart Symbol (representing testing/data) -->
  <rect x="85" y="90" width="30" height="40" rx="4" fill="url(#chartGradient)" opacity="0.8"/>
  <path d="M90 115 L95 110 L100 105 L105 108 L110 100" stroke="#00D9FF" stroke-width="2" fill="none" stroke-linecap="round" stroke-linejoin="round"/>
  <rect x="90" y="118" width="4" height="8" fill="#00D9FF" opacity="0.6"/>
  <rect x="98" y="114" width="4" height="12" fill="#00D9FF" opacity="0.6"/>
  <rect x="106" y="110" width="4" height="16" fill="#00D9FF" opacity="0.6"/>
</svg>
